<svg id="Layer_1" data-name="Layer 1" xmlns="http://www.w3.org/2000/svg" viewBox="0 0 471 485"><defs><style>.cls-1{fill:#67d839;}.cls-2{fill:#16aabc;}.cls-3{fill:#bbb;}.cls-4{fill:#fcae30;}</style></defs><polygon class="cls-1" points="36.01 229.52 196.01 64.76 206.41 75.48 46.41 240.24 36.01 229.52"/><polygon class="cls-1" points="235.47 34.84 174.9 51.55 219.24 97.21 235.47 34.84"/><polygon class="cls-2" points="294.04 424.68 454.04 259.92 464.45 270.63 304.45 435.39 294.04 424.68"/><polygon class="cls-2" points="264.97 465.31 325.54 448.6 281.19 402.94 264.97 465.31"/><ellipse class="cls-3" cx="76.13" cy="352.16" rx="38.07" ry="39.2"/><path class="cls-2" d="M98.44,495.89,62.07,414S24,414.88,24,450.6v45.29Z" transform="translate(-24 -10.89)"/><path class="cls-2" d="M101.83,495.89,138.2,414s38.07.87,38.07,36.59v45.29Z" transform="translate(-24 -10.89)"/><polygon class="cls-4" points="49.53 403.12 76.13 464.09 102.74 403.12 49.53 403.12"/><ellipse class="cls-3" cx="394.87" cy="39.2" rx="38.07" ry="39.2"/><path class="cls-2" d="M417.17,183l-36.37-81.9s-38.07.87-38.07,36.59V183Z" transform="translate(-24 -10.89)"/><path class="cls-2" d="M420.56,183l36.37-81.9S495,102,495,137.68V183Z" transform="translate(-24 -10.89)"/><polygon class="cls-4" points="368.26 90.2 394.87 151.18 421.47 90.2 368.26 90.2"/><ellipse class="cls-3" cx="235.5" cy="195.66" rx="38.07" ry="39.2"/><path class="cls-1" d="M257.81,339.43l-36.38-81.88s-38.07.87-38.07,36.59v45.29Z" transform="translate(-24 -10.89)"/><path class="cls-1" d="M261.19,339.43l36.38-81.88s38.07.87,38.07,36.59v45.29Z" transform="translate(-24 -10.89)"/><polygon class="cls-4" points="208.9 246.66 235.5 307.63 262.1 246.66 208.9 246.66"/></svg>