<svg id="Layer_1" data-name="Layer 1" xmlns="http://www.w3.org/2000/svg" viewBox="0 0 761.71 735.89"><defs><style>.cls-1{fill:#d1d3d3;}.cls-2{fill:#edefef;}.cls-3{fill:#7ed63e;}.cls-4{fill:#7bc144;}.cls-5{fill:#6e6057;}.cls-6{fill:#615349;}.cls-7{fill:#ff3501;}.cls-8{fill:#cd2a00;}.cls-9{fill:#ff6243;}.cls-10{fill:#dbe9fd;}.cls-11{fill:#c5dcfd;}.cls-12{fill:#a1a9af;}.cls-13{fill:#8a9096;}.cls-14{fill:#16aabc;}.cls-15{fill:#efbe44;}.cls-16{fill:#fff;}.cls-17{fill:#dfebed;}.cls-18{fill:#c0c4c4;}.cls-19{fill:#c4c4c4;}.cls-20{fill:#afafaf;}.cls-21{fill:#ed1c24;}.cls-22{fill:#006df0;}.cls-23{fill:#128a93;}.cls-24{fill:#ffcd00;}.cls-25{fill:#f1f2f2;}</style></defs><path class="cls-1" d="M202.46,398.52,191,374.42,647.83,157,659.3,181.1Z" transform="translate(-20.35 -42.02)"/><path class="cls-1" d="M183.52,383.61,195.91,360,644,594.83l-12.39,23.65Z" transform="translate(-20.35 -42.02)"/><path class="cls-2" d="M20.35,213.8h332v332h-332Z" transform="translate(-20.35 -42.02)"/><rect class="cls-2" x="406.18" width="355.52" height="355.52"/><path class="cls-3" d="M751.62,356.38H471.92a9.76,9.76,0,0,1-9.75-9.76V132a9.76,9.76,0,0,1,9.75-9.75h279.7a9.76,9.76,0,0,1,9.75,9.75V346.62A9.76,9.76,0,0,1,751.62,356.38Z" transform="translate(-20.35 -42.02)"/><path class="cls-4" d="M751.62,122.22H611.77V356.38H751.62a9.76,9.76,0,0,0,9.75-9.76V132A9.76,9.76,0,0,0,751.62,122.22Z" transform="translate(-20.35 -42.02)"/><path class="cls-5" d="M569.49,356.38h-39a9.76,9.76,0,0,1-9.75-9.76V327.11a9.76,9.76,0,0,1,9.75-9.76h39a9.76,9.76,0,0,1,9.76,9.76v19.51A9.76,9.76,0,0,1,569.49,356.38Z" transform="translate(-20.35 -42.02)"/><path class="cls-6" d="M693.08,356.38h-39a9.76,9.76,0,0,1-9.76-9.76V327.11a9.76,9.76,0,0,1,9.76-9.76h39a9.76,9.76,0,0,1,9.75,9.76v19.51A9.76,9.76,0,0,1,693.08,356.38Z" transform="translate(-20.35 -42.02)"/><path class="cls-7" d="M702.33,246l-12.82-38.46a39.08,39.08,0,0,0-37.11-26.75H571.14A39.07,39.07,0,0,0,534,207.51L526.2,231l-8.35-8.35a9.76,9.76,0,0,0-13.8,13.8L523.56,256l.34.31.31.28c.22.18.44.35.67.51l.18.13c.3.2.61.38.93.55l.16.07c.27.13.54.25.82.36l.3.1a6,6,0,0,0,.72.22l.34.09c.25.05.49.1.74.13l.33.05a9.46,9.46,0,0,0,1.07.06H693.08A9.75,9.75,0,0,0,702.33,246Z" transform="translate(-20.35 -42.02)"/><path class="cls-8" d="M719.49,222.64a9.76,9.76,0,0,0-13.8,0L697.34,231l-7.83-23.48a39.08,39.08,0,0,0-37.11-26.75H611.77v78.05h81.31a9.42,9.42,0,0,0,1.06-.06l.33-.05c.25,0,.49-.08.74-.13l.34-.09a6,6,0,0,0,.72-.22l.3-.1c.28-.11.55-.23.82-.36l.16-.08a8.65,8.65,0,0,0,.93-.54l.18-.13c.23-.16.45-.33.67-.51l.31-.28L700,256l19.51-19.51A9.76,9.76,0,0,0,719.49,222.64Z" transform="translate(-20.35 -42.02)"/><path class="cls-5" d="M544,239.3H679.54L671,213.68a19.58,19.58,0,0,0-18.6-13.41H571.14a19.58,19.58,0,0,0-18.6,13.41Z" transform="translate(-20.35 -42.02)"/><path class="cls-6" d="M652.4,200.27H611.77v39h67.77L671,213.68A19.58,19.58,0,0,0,652.4,200.27Z" transform="translate(-20.35 -42.02)"/><path class="cls-9" d="M689.72,336.87H533.82a32.67,32.67,0,0,1-32.63-32.63v-31.4a33.58,33.58,0,0,1,33.54-33.54H688.81a33.58,33.58,0,0,1,33.54,33.54v31.4A32.67,32.67,0,0,1,689.72,336.87Z" transform="translate(-20.35 -42.02)"/><path class="cls-7" d="M688.81,239.3h-77v97.57h78a32.67,32.67,0,0,0,32.63-32.63v-31.4A33.58,33.58,0,0,0,688.81,239.3Z" transform="translate(-20.35 -42.02)"/><path class="cls-5" d="M634.54,297.84H589a9.76,9.76,0,0,1,0-19.51h45.54a9.76,9.76,0,0,1,0,19.51Z" transform="translate(-20.35 -42.02)"/><path class="cls-6" d="M634.54,278.33H611.77v19.51h22.77a9.76,9.76,0,0,0,0-19.51Z" transform="translate(-20.35 -42.02)"/><circle class="cls-10" cx="529.62" cy="246.06" r="9.76"/><circle class="cls-11" cx="653.21" cy="246.06" r="9.76"/><path class="cls-5" d="M761.37,141.73H462.17v-39a9.77,9.77,0,0,1,7.33-9.45L609.35,57.48a9.68,9.68,0,0,1,4.84,0L754,93.25a9.76,9.76,0,0,1,7.34,9.45Z" transform="translate(-20.35 -42.02)"/><path class="cls-6" d="M761.37,141.73v-39A9.76,9.76,0,0,0,754,93.25L614.19,57.48a9.45,9.45,0,0,0-2.42-.31v84.56Z" transform="translate(-20.35 -42.02)"/><rect class="cls-12" x="441.81" y="80.19" width="299.21" height="39.03"/><rect class="cls-13" x="591.41" y="80.19" width="149.6" height="39.03"/><path class="cls-2" d="M424.17,426.63H775.45V777.91H424.17Z" transform="translate(-20.35 -42.02)"/><path class="cls-14" d="M66.29,259.73H306.41V499.85H66.29Z" transform="translate(-20.35 -42.02)"/><path class="cls-15" d="M42,239.3H333V526.38H42Z" transform="translate(-20.35 -42.02)"/><circle class="cls-16" cx="164.84" cy="340.81" r="120.15"/><path class="cls-3" d="M274.82,395v-24.4a1.79,1.79,0,0,0-1.6-1.79l-27.71-2.94a1.78,1.78,0,0,1-1.52-1.29,64.8,64.8,0,0,0-5.41-13,1.75,1.75,0,0,1,.17-2l17.53-21.67a1.78,1.78,0,0,0-.12-2.39L238.9,308.27a1.79,1.79,0,0,0-2.39-.12l-21.7,17.52a1.81,1.81,0,0,1-2,.17,64.89,64.89,0,0,0-13-5.41,1.78,1.78,0,0,1-1.29-1.52l-2.94-27.73a1.8,1.8,0,0,0-1.79-1.6h-24.4a1.81,1.81,0,0,0-1.79,1.6l-2.93,27.71a1.79,1.79,0,0,1-1.29,1.52,64.65,64.65,0,0,0-13,5.41,1.75,1.75,0,0,1-2-.17l-21.66-17.52a1.8,1.8,0,0,0-2.4.13L107,325.51a1.8,1.8,0,0,0-.13,2.4l17.54,21.66a1.81,1.81,0,0,1,.17,2,64.89,64.89,0,0,0-5.41,13,1.79,1.79,0,0,1-1.52,1.3l-27.75,3a1.8,1.8,0,0,0-1.6,1.79V395a1.81,1.81,0,0,0,1.6,1.79l27.72,2.93a1.79,1.79,0,0,1,1.52,1.29,64.08,64.08,0,0,0,5.41,13.05,1.77,1.77,0,0,1-.17,2l-17.52,21.66a1.79,1.79,0,0,0,.12,2.4l17.26,17.25a1.79,1.79,0,0,0,2.39.13L148.3,440a1.81,1.81,0,0,1,2-.17,65.28,65.28,0,0,0,13,5.41,1.78,1.78,0,0,1,1.29,1.52l2.95,27.75a1.79,1.79,0,0,0,1.79,1.6h24.4a1.8,1.8,0,0,0,1.79-1.6l2.94-27.72a1.78,1.78,0,0,1,1.29-1.52,64.23,64.23,0,0,0,13-5.41,1.77,1.77,0,0,1,2,.17l21.67,17.54a1.79,1.79,0,0,0,2.39-.13l17.26-17.25a1.8,1.8,0,0,0,.12-2.4l-17.53-21.66a1.77,1.77,0,0,1-.17-2,64.91,64.91,0,0,0,5.4-13,1.79,1.79,0,0,1,1.53-1.29l27.74-3A1.8,1.8,0,0,0,274.82,395Zm-93.26,5.33a17.54,17.54,0,1,1,17.54-17.53A17.53,17.53,0,0,1,181.56,400.37Z" transform="translate(-20.35 -42.02)"/><path class="cls-17" d="M126.09,390.17c0-34.7,25-63.3,60-64.65,1.07,0,3.86,0,5.59,1.56a5.33,5.33,0,0,1,1.25,6,5.44,5.44,0,0,1-5.29,3.29c-29.16,1-53.84,24.78-53.85,53.47a3.69,3.69,0,0,1-.24,1.33l-.16.39a3.79,3.79,0,0,1-7,.28,4.08,4.08,0,0,1-.38-1.68Z" transform="translate(-20.35 -42.02)"/><g id="data-_2_" data-name="data-(2)"><path id="Shape" class="cls-18" d="M468.71,452.82h262.7a21,21,0,0,1,21,21V663a21,21,0,0,1-21,21H468.71a21,21,0,0,1-21-21V473.84A21,21,0,0,1,468.71,452.82Z" transform="translate(-20.35 -42.02)"/><polygon id="Shape-2" data-name="Shape" class="cls-19" points="537.67 641.97 621.74 641.97 621.74 684 537.67 684 537.67 641.97"/><path id="Shape-3" data-name="Shape" class="cls-20" d="M526.51,726a21,21,0,0,0-21,21v10.51H694.63V747a21,21,0,0,0-21-21Z" transform="translate(-20.35 -42.02)"/><polygon id="Shape-4" data-name="Shape" class="cls-14" points="448.36 431.81 711.05 431.81 711.05 599.94 448.36 599.94 448.36 431.81"/><path id="Shape-5" data-name="Shape" class="cls-21" d="M610.57,663a10.51,10.51,0,1,1-10.51-10.51A10.52,10.52,0,0,1,610.57,663Z" transform="translate(-20.35 -42.02)"/><polygon id="Shape-6" data-name="Shape" class="cls-3" points="579.71 484.35 605.98 484.35 605.98 452.83 553.44 452.83 553.44 484.35 579.71 484.35"/><polygon id="Shape-7" data-name="Shape" class="cls-21" points="579.71 536.89 553.44 536.89 553.44 568.42 605.98 568.42 605.98 536.89 579.71 536.89"/><polygon id="Shape-8" data-name="Shape" class="cls-22" points="637.5 536.89 637.5 568.42 690.04 568.42 690.04 536.89 637.5 536.89"/><path id="Shape-9" data-name="Shape" class="cls-23" d="M468.71,531.63V642H600.06C527.46,642,468.71,592.61,468.71,531.63Z" transform="translate(-20.35 -42.02)"/><polygon id="Shape-10" data-name="Shape" class="cls-24" points="495.64 536.89 469.37 536.89 469.37 568.42 521.91 568.42 521.91 536.89 495.64 536.89"/><g id="Group"><polygon id="Shape-11" data-name="Shape" class="cls-25" points="574.45 484.35 584.96 484.35 584.96 536.89 574.45 536.89 574.45 484.35"/><polygon id="Shape-12" data-name="Shape" class="cls-25" points="521.91 547.4 553.44 547.4 553.44 557.91 521.91 557.91 521.91 547.4"/><polygon id="Shape-13" data-name="Shape" class="cls-25" points="605.98 547.4 637.5 547.4 637.5 557.91 605.98 557.91 605.98 547.4"/><path id="Shape-14" data-name="Shape" class="cls-25" d="M689.38,578.92H678.87V531.63a15.77,15.77,0,0,0-15.76-15.76H626.33V505.36h36.78a26.31,26.31,0,0,1,26.27,26.27Z" transform="translate(-20.35 -42.02)"/><path id="Shape-15" data-name="Shape" class="cls-25" d="M521.25,578.92H510.74V531.63A26.31,26.31,0,0,1,537,505.36h36.78v10.51H537a15.77,15.77,0,0,0-15.76,15.76Z" transform="translate(-20.35 -42.02)"/></g></g></svg>