<svg xmlns="http://www.w3.org/2000/svg" viewBox="0 0 707.03 718.53"><defs><style>.cls-1{fill:#e8e8e8;}.cls-2{fill:#67d839;}.cls-3{fill:#16aabc;}.cls-4{fill:#ffe76e;}.cls-5{fill:#2fb1ea;}.cls-6{fill:#6dd0fc;}.cls-7{fill:#a4ecff;}.cls-8{fill:#d4ffd4;}.cls-9{fill:#f88;}.cls-10{fill:#f97171;}.cls-11{fill:#90fc95;}.cls-12{fill:#52e355;}.cls-13{fill:#fff;}.cls-14{fill:#cbecf9;}.cls-15{fill:#ffc444;}.cls-16{fill:#231f20;}.cls-17{fill:#ffce8d;}.cls-18{fill:#ffba50;}.cls-19{fill:#8d7f89;}.cls-20{fill:#333e48;}.cls-21{fill:#00ad68;}.cls-22{fill:#ff5959;}.cls-23{fill:#d1d3d3;}.cls-24{fill:#a4a9ad;}.cls-25{fill:#ffb819;}.cls-26{fill:#f9b54c;}.cls-27{fill:#4df74d;}.cls-28{fill:#54c0eb;}</style></defs><g id="Layer_2" data-name="Layer 2"><path class="cls-1" d="M681.61,83.55h32.12V718.32H681.61Z" transform="translate(-53.32 -47.1)"/><path class="cls-2" d="M728.27,706.44V604.79c0-4.91-2.26-9-5-9H672c-2.76,0-5,4-5,9V706.44Z" transform="translate(-53.32 -47.1)"/><path class="cls-1" d="M67.86,83.55H100V718.32H67.86Z" transform="translate(-53.32 -47.1)"/><path class="cls-2" d="M114.49,706.44V604.79c0-4.91-2.25-9-5-9H58.35c-2.75,0-5,4-5,9V706.44Z" transform="translate(-53.32 -47.1)"/><rect class="cls-3" y="660.86" width="707.03" height="57.67"/><g id="Layer_2-2" data-name="Layer 2"><path class="cls-4" d="M604.6,123.83h0a5.48,5.48,0,0,1-5.28,5.66H541.19a5.47,5.47,0,0,1-5.28-5.66h0a5.47,5.47,0,0,1,5.28-5.66h58.13A5.48,5.48,0,0,1,604.6,123.83Z" transform="translate(-53.32 -47.1)"/><path class="cls-4" d="M581.26,140.16h0a5.47,5.47,0,0,1-5.27,5.66h-34.8a5.47,5.47,0,0,1-5.28-5.66h0a5.48,5.48,0,0,1,5.28-5.66H576A5.48,5.48,0,0,1,581.26,140.16Z" transform="translate(-53.32 -47.1)"/><path class="cls-4" d="M572.55,156.5h0a5.48,5.48,0,0,1-5.27,5.66H541.19a5.48,5.48,0,0,1-5.28-5.66h0a5.47,5.47,0,0,1,5.28-5.66h26.09A5.47,5.47,0,0,1,572.55,156.5Z" transform="translate(-53.32 -47.1)"/><path class="cls-5" d="M523.65,270.93a1.56,1.56,0,0,1-1.5-1.61V102.09a1.5,1.5,0,1,1,3,0V269.32A1.56,1.56,0,0,1,523.65,270.93Z" transform="translate(-53.32 -47.1)"/><polygon class="cls-6" points="474.82 206.14 494.31 175.05 513.8 164.6 533.29 173.67 552.77 144.75 572.26 147.18 591.75 91.97 591.75 206.14 474.82 206.14"/><polygon class="cls-7" points="531.04 182.94 550.53 192.01 570.01 163.08 589.5 165.52 591.75 159.15 591.75 91.97 572.26 147.18 552.77 144.75 533.29 173.67 513.8 164.6 494.31 175.05 481.28 195.84 510.04 195.8 511.55 193.39 531.04 182.94"/><path class="cls-5" d="M645.07,254.85H528.14a1.56,1.56,0,0,1-1.5-1.61,1.66,1.66,0,0,1,.26-.9l19.49-31.09a1.48,1.48,0,0,1,.57-.54l19.49-10.45a1.42,1.42,0,0,1,1.27,0l18.38,8.56,18.78-27.88a1.48,1.48,0,0,1,1.39-.66l18.32,2.3,19.08-54a1.47,1.47,0,0,1,1.93-.94,1.62,1.62,0,0,1,1,1.47V253.24A1.56,1.56,0,0,1,645.07,254.85ZM531,251.63H643.57V147.86l-16.58,47a1.5,1.5,0,0,1-1.58,1l-18.61-2.32-19,28.14a1.44,1.44,0,0,1-1.81.53l-18.85-8.78-18.51,10Z" transform="translate(-53.32 -47.1)"/><path class="cls-5" d="M664.56,254.85H508.66a1.61,1.61,0,0,1,0-3.22h155.9a1.61,1.61,0,0,1,0,3.22Z" transform="translate(-53.32 -47.1)"/><ellipse class="cls-8" cx="459.08" cy="220.61" rx="0.75" ry="0.8"/></g><path class="cls-2" d="M614.4,137.61l6.23,6.32-26.09,23.83-4.93-5a3.33,3.33,0,0,0-4.66-.1L565.78,180.5l-3.11-3.15a3.33,3.33,0,0,0-4.6-.15l-29.28,26,4.77,4.85,26.57-23.64,3.16,3.21a3.34,3.34,0,0,0,4.66.1l19.18-17.84,4.91,5a3.33,3.33,0,0,0,4.63.13l28.73-26.24,5.17,5.24V137.61Z" transform="translate(-53.32 -47.1)"/><g id="Layer_2-3" data-name="Layer 2"><path class="cls-9" d="M199.17,115.47c-39.84,4-69,40.33-65.15,81.22a75.43,75.43,0,0,0,16.2,40.14l49-50.27Z" transform="translate(-53.32 -47.1)"/><path class="cls-10" d="M199.17,146.51c-23.13,5.17-37.8,28.61-32.76,52.36a44.63,44.63,0,0,0,6.18,15l26.58-27.3Z" transform="translate(-53.32 -47.1)"/><path class="cls-5" d="M150.22,238.26h-.07a1.33,1.33,0,0,1-1-.52c-25.94-32.32-21.44-80.11,10-106.74a72.84,72.84,0,0,1,39.86-17,1.4,1.4,0,0,1,1.52,1.29s0,.09,0,.14v71.09a1.47,1.47,0,0,1-.42,1l-49,50.26A1.33,1.33,0,0,1,150.22,238.26Zm47.56-121.2c-39,4.74-66.85,41-62.23,81a74,74,0,0,0,14.76,36.59L197.78,186Z" transform="translate(-53.32 -47.1)"/><path class="cls-11" d="M278.28,182.37c-3.33-35.43-30.65-63.48-65.17-66.9v66.9Z" transform="translate(-53.32 -47.1)"/><path class="cls-12" d="M250.65,182.37c-3.15-19.43-18.47-34.37-37.54-36.6v36.6Z" transform="translate(-53.32 -47.1)"/><path class="cls-5" d="M278.28,183.8H213.11a1.41,1.41,0,0,1-1.39-1.43v-66.9A1.41,1.41,0,0,1,213.1,114h.14c35.18,3.49,63,32.07,66.43,68.19a1.43,1.43,0,0,1-1.26,1.56h-.13Zm-63.78-2.86h62.23c-3.86-33.5-29.59-59.91-62.23-63.88Z" transform="translate(-53.32 -47.1)"/><path class="cls-7" d="M160.06,246.93a71,71,0,0,0,92.16,0l-46.08-47.29Z" transform="translate(-53.32 -47.1)"/><path class="cls-6" d="M182.09,224.33A41.88,41.88,0,0,0,232,226.18l-25.88-26.54Z" transform="translate(-53.32 -47.1)"/><path class="cls-5" d="M206.14,265.36a72.81,72.81,0,0,1-47-17.31,1.46,1.46,0,0,1-.22-2l.12-.14,46.09-47.3a1.37,1.37,0,0,1,2,0h0l46.08,47.3a1.46,1.46,0,0,1,0,2l-.13.12A72.85,72.85,0,0,1,206.14,265.36Zm-44-18.53a69.62,69.62,0,0,0,88,0l-44-45.16Z" transform="translate(-53.32 -47.1)"/><path class="cls-13" d="M262.08,236.83a75.12,75.12,0,0,0,16.2-40.15H223Z" transform="translate(-53.32 -47.1)"/><path class="cls-14" d="M223,196.68l19.25,19.77a44.37,44.37,0,0,0,8.42-19.77Z" transform="translate(-53.32 -47.1)"/><path class="cls-5" d="M262.08,238.26a1.35,1.35,0,0,1-1-.42L222,197.69a1.45,1.45,0,0,1,0-2,1.35,1.35,0,0,1,1-.42H278.3a1.41,1.41,0,0,1,1.4,1.42v.15a76.39,76.39,0,0,1-16.52,40.92,1.33,1.33,0,0,1-1,.52Zm-35.75-40.15L262,234.69a73.53,73.53,0,0,0,14.76-36.58Z" transform="translate(-53.32 -47.1)"/><ellipse class="cls-15" cx="155" cy="142.43" rx="37.32" ry="38.32"/><ellipse class="cls-4" cx="155" cy="137.29" rx="32.32" ry="33.18"/><path class="cls-5" d="M208.32,229.27c-21.38,0-38.72-17.79-38.72-39.74s17.34-39.75,38.72-39.75S247,167.57,247,189.53h0C247,211.47,229.7,229.25,208.32,229.27Zm0-76.63c-19.84,0-35.93,16.52-35.93,36.89s16.09,36.88,35.93,36.88,35.93-16.51,35.93-36.88h0c0-20.36-16.09-36.86-35.93-36.89Z" transform="translate(-53.32 -47.1)"/><path class="cls-13" d="M213,210.24H195.66a4.3,4.3,0,0,1,0-8.59H213a3.92,3.92,0,0,0,0-7.83h-9.32a12.5,12.5,0,0,1,0-25H221a4.29,4.29,0,0,1,0,8.58H203.66a3.92,3.92,0,0,0,0,7.83H213a12.51,12.51,0,0,1,0,25Z" transform="translate(-53.32 -47.1)"/><path class="cls-13" d="M208.32,177.4a4.23,4.23,0,0,1-4.18-4.29V164.9a4.18,4.18,0,1,1,8.36,0v8.21A4.23,4.23,0,0,1,208.32,177.4Z" transform="translate(-53.32 -47.1)"/><path class="cls-13" d="M208.32,218.44a4.23,4.23,0,0,1-4.18-4.29v-8.21a4.18,4.18,0,1,1,8.36,0v8.21A4.23,4.23,0,0,1,208.32,218.44Z" transform="translate(-53.32 -47.1)"/></g><ellipse class="cls-16" cx="345.25" cy="336.29" rx="2.56" ry="2.97"/><path class="cls-16" d="M411.54,380.41a3,3,0,1,0,2.55,3A2.78,2.78,0,0,0,411.54,380.41Z" transform="translate(-53.32 -47.1)"/><ellipse class="cls-16" cx="370.95" cy="336.29" rx="2.56" ry="2.97"/><path class="cls-16" d="M369.08,363a18.81,18.81,0,0,0-9.8,2.8V344.61a2.93,2.93,0,0,0-2.82-3H330.94a2.93,2.93,0,0,0-2.82,3,3.16,3.16,0,0,0,.9,2.22,15.71,15.71,0,0,1,4.66,11.27c0,8.49-6.41,15.37-14.33,15.37S305,366.59,305,358.1h0a15.7,15.7,0,0,1,4.65-11.27,3.18,3.18,0,0,0,.16-4.28,2.75,2.75,0,0,0-2.07-1H282.25a2.93,2.93,0,0,0-2.82,3V412.1c0,8.36,6.31,15.14,14.11,15.14h62.92a2.93,2.93,0,0,0,2.82-3V403c9.6,5.81,21.77,2.18,27.19-8.12s2-23.35-7.56-29.16a18.93,18.93,0,0,0-9.83-2.77Z" transform="translate(-53.32 -47.1)"/><path class="cls-3" d="M369.08,399.79a13.73,13.73,0,0,1-10.53-5,2.74,2.74,0,0,0-3.11-.78,3,3,0,0,0-1.8,2.82v24.39h-60.1c-4.68,0-8.47-4.06-8.47-9.08V347.65h16.87a22.23,22.23,0,0,0-2.56,10.46c0,11.83,8.94,21.43,20,21.43s20-9.6,20-21.43a22.11,22.11,0,0,0-2.56-10.46h16.88v24.4a3,3,0,0,0,1.8,2.83,2.74,2.74,0,0,0,3.11-.78,13.74,13.74,0,0,1,10.53-5.05c7.91,0,14.33,6.89,14.33,15.37s-6.42,15.37-14.33,15.37Z" transform="translate(-53.32 -47.1)"/><path class="cls-16" d="M507.81,341.59H487.12a20.61,20.61,0,0,0,2.72-10.28,21,21,0,1,0-41.9,0h0a20.6,20.6,0,0,0,2.71,10.28H430a3,3,0,0,0-3,3v26.79a3,3,0,0,0,5.14,2,14.86,14.86,0,0,1,11-4.89,15,15,0,0,1,0,30.08,14.86,14.86,0,0,1-11-4.89,3,3,0,0,0-5.14,2v26.77a3,3,0,0,0,3,3h66a14.81,14.81,0,0,0,14.8-14.81v-66A3,3,0,0,0,507.81,341.59Z" transform="translate(-53.32 -47.1)"/><path class="cls-2" d="M504.85,410.58a8.89,8.89,0,0,1-8.88,8.89H432.92V401.75a20.54,20.54,0,0,0,10.23,2.7,21,21,0,0,0,0-41.93,20.63,20.63,0,0,0-10.23,2.69V347.52h23.87a3,3,0,0,0,3-3,2.91,2.91,0,0,0-1-2.19,14.86,14.86,0,0,1-4.93-11.06,15,15,0,1,1,30.06,0A14.83,14.83,0,0,1,479,342.37a3,3,0,0,0,2,5.15h23.87Z" transform="translate(-53.32 -47.1)"/><path class="cls-16" d="M406.38,290.22a26.69,26.69,0,0,1,6.33-16.49c15.65-18.74,15-48.31-1.58-66.05q-1-1.12-2.16-2.16c-9.62-9-22.27-12.53-34.48-9.75-22.32,5.15-36.73,29.83-32.19,55.13a49.15,49.15,0,0,0,10.47,22.81,26.84,26.84,0,0,1,6.34,16.51c-3.81.5-6.69,4.14-6.72,8.48v6.37c0,4.8,3.44,8.7,7.68,8.71h.6c1.07,13.83,11.83,24.06,24,22.85,10.72-1.06,19.23-10.7,20.17-22.85h.6c4.24,0,7.68-3.91,7.68-8.71V298.7C413.13,294.33,410.21,290.69,406.38,290.22Z" transform="translate(-53.32 -47.1)"/><path class="cls-17" d="M348.08,234.41c2.51-16,13.45-28.72,27.56-31.92,10.43-2.37,21.25.68,29.48,8.32,15,14,17.16,39.11,4.82,56.11-.52.72-1.06,1.42-1.63,2.09a34,34,0,0,0-8,21H394V260.32h2.19c4.57,0,8.27-4.18,8.28-9.35v-.87c0-5.16-3.69-9.35-8.25-9.35S388,244.94,388,250.1v3.37H377.49V250.1c0-5.16-3.7-9.35-8.25-9.35S361,244.94,361,250.1V251c0,5.17,3.7,9.35,8.25,9.35h2.2V290h-6.32a34.06,34.06,0,0,0-8-21C349.43,259.78,346.05,246.92,348.08,234.41Z" transform="translate(-53.32 -47.1)"/><path class="cls-18" d="M371.44,253.46h-2.2A2.35,2.35,0,0,1,367,251h0v-.87a2.22,2.22,0,1,1,4.4,0Z" transform="translate(-53.32 -47.1)"/><rect class="cls-18" x="324.17" y="213.22" width="10.5" height="29.68"/><path class="cls-18" d="M394,253.46V250.1a2.22,2.22,0,1,1,4.4,0V251a2.37,2.37,0,0,1-2.2,2.5H394Z" transform="translate(-53.32 -47.1)"/><path class="cls-19" d="M382.74,329.88c-8.16,0-15-6.92-16.05-16.1h32.1C397.78,323,390.9,329.85,382.74,329.88Z" transform="translate(-53.32 -47.1)"/><path class="cls-19" d="M360.06,296.85h45.35a1.75,1.75,0,0,1,1.64,1.85v6.36a1.75,1.75,0,0,1-1.64,1.85H360.06a1.75,1.75,0,0,1-1.64-1.85V298.7A1.75,1.75,0,0,1,360.06,296.85Z" transform="translate(-53.32 -47.1)"/><path class="cls-16" d="M382.74,189.24a3.25,3.25,0,0,0,3-3.43V161.67a3,3,0,1,0-6.05,0v24.14A3.25,3.25,0,0,0,382.74,189.24Z" transform="translate(-53.32 -47.1)"/><path class="cls-16" d="M431.19,244.15a3.25,3.25,0,0,0,3,3.43h21.31a3.45,3.45,0,0,0,0-6.85H434.22A3.24,3.24,0,0,0,431.19,244.15Z" transform="translate(-53.32 -47.1)"/><path class="cls-16" d="M309.94,247.58h21.32a3.45,3.45,0,0,0,0-6.85H309.94a3.45,3.45,0,0,0,0,6.85Z" transform="translate(-53.32 -47.1)"/><path class="cls-16" d="M354.38,195.34a2.85,2.85,0,0,0,4.13,1.25,3.68,3.68,0,0,0,1.1-4.68L349,171a2.86,2.86,0,0,0-4.08-1.45,3.65,3.65,0,0,0-1.28,4.62,2,2,0,0,0,.13.25Z" transform="translate(-53.32 -47.1)"/><path class="cls-16" d="M427.32,218.41a2.73,2.73,0,0,0,1.51-.46l18.47-12.08a3.7,3.7,0,0,0,1.11-4.68,2.85,2.85,0,0,0-4.14-1.26L425.81,212a3.68,3.68,0,0,0-1.11,4.68,3,3,0,0,0,2.62,1.71Z" transform="translate(-53.32 -47.1)"/><path class="cls-16" d="M336.64,270.35l-18.46,12.08a3.7,3.7,0,0,0-1.11,4.69,2.85,2.85,0,0,0,4.14,1.26l18.46-12.09a3.67,3.67,0,0,0,1.13-4.67,2.84,2.84,0,0,0-4.12-1.29Z" transform="translate(-53.32 -47.1)"/><path class="cls-16" d="M318.18,205.87,336.64,218a2.84,2.84,0,0,0,4.14-1.22A3.69,3.69,0,0,0,339.7,212l0,0-18.46-12.09a2.85,2.85,0,0,0-4.14,1.26,3.68,3.68,0,0,0,1.11,4.68Z" transform="translate(-53.32 -47.1)"/><path class="cls-16" d="M425.81,276.29l18.46,12.09a2.76,2.76,0,0,0,1.51.46,3.26,3.26,0,0,0,3-3.42,3.57,3.57,0,0,0-1.52-3l-18.47-12.08a2.83,2.83,0,0,0-4.13,1.23,3.68,3.68,0,0,0,1.08,4.69l0,0Z" transform="translate(-53.32 -47.1)"/><path class="cls-16" d="M407,196.59a2.84,2.84,0,0,0,4.12-1.25l10.66-20.93a3.7,3.7,0,0,0-.93-4.73,2.82,2.82,0,0,0-4.17,1.06,2,2,0,0,0-.13.25l-10.66,20.92A3.69,3.69,0,0,0,407,196.59Z" transform="translate(-53.32 -47.1)"/><rect class="cls-1" x="14.54" width="645.87" height="36.45"/><path class="cls-20" d="M224.68,640.37c-9,0-16.2-5.54-20.93-16.1-6.16-13.7-6.33-32-6.08-40.37.36-13.65,2.49-27.36,5.67-36.61L214,554.43c-4.82,14.1-7.06,45.92-.29,61,2.57,5.7,6,8.33,10.93,8.33v16.62Z" transform="translate(-53.32 -47.1)"/><path d="M203.42,547.19a105.13,105.13,0,0,0-4.41,20.5,21.06,21.06,0,0,0,11.35,5.77,91.1,91.1,0,0,1,3.75-19.08Z" transform="translate(-53.32 -47.1)"/><path class="cls-21" d="M224.68,508.87c-5.92,0-25.18,19.93-25.18,39.51s19.26,15.31,25.18,15.31Z" transform="translate(-53.32 -47.1)"/><path d="M224.68,508.87v54.89c-2.45,0-7.14.74-11.8.23V517.61C217.58,512.29,222.27,508.87,224.68,508.87Z" transform="translate(-53.32 -47.1)"/><path class="cls-20" d="M330.07,639c9,0,16.2-5.55,20.93-16.11,6.16-13.7,6.33-32,6.08-40.37-.37-13.64-2.49-27.35-5.67-36.6L340.72,553c4.82,14.1,7.06,45.91.29,61-2.57,5.7-6.05,8.34-10.92,8.34Z" transform="translate(-53.32 -47.1)"/><path d="M351.36,545.79a106,106,0,0,1,4.41,20.5,21.09,21.09,0,0,1-11.35,5.77A91.64,91.64,0,0,0,340.67,553Z" transform="translate(-53.32 -47.1)"/><path class="cls-22" d="M330.07,507.47c5.91,0,25.18,19.93,25.18,39.52s-19.24,15.3-25.18,15.3Z" transform="translate(-53.32 -47.1)"/><path d="M330.07,507.47v54.89c2.45,0,7.14.74,11.79.23V516.21C337.24,510.9,332.55,507.47,330.07,507.47Z" transform="translate(-53.32 -47.1)"/><path class="cls-23" d="M334.14,703.8V494.91c0-6.74-4-12.28-8.74-12.28H234c-4.82,0-8.78,5.54-8.78,12.28V703.8Z" transform="translate(-53.32 -47.1)"/><path class="cls-23" d="M225.26,608.61H334.14v95.25H225.26Z" transform="translate(-53.32 -47.1)"/><path class="cls-24" d="M242.81,659.87h12.66v43.19H242.81Zm54.45,0H309.9v43.19H297.26Z" transform="translate(-53.32 -47.1)"/><path class="cls-13" d="M247.14,518.66h65.12v33H247.14Z" transform="translate(-53.32 -47.1)"/><path class="cls-21" d="M225.26,584.9H279.7v52.83H225.26Z" transform="translate(-53.32 -47.1)"/><path class="cls-25" d="M279.7,584.9h54.44v52.83H279.7Z" transform="translate(-53.32 -47.1)"/><line class="cls-13" x1="199" y1="497.58" x2="199" y2="505.73"/><rect class="cls-26" x="225.68" y="494.33" width="12.31" height="8.14"/><rect class="cls-27" x="210.73" y="494.33" width="12.31" height="8.14"/><rect class="cls-28" x="241.29" y="494.33" width="12.31" height="8.14"/><path class="cls-20" d="M424.59,639c-9,0-16.2-5.55-20.94-16.11-6.16-13.7-6.32-32-6.08-40.37.37-13.64,2.49-27.35,5.68-36.6L413.94,553c-4.82,14.1-7.06,45.91-.29,61,2.57,5.7,6,8.34,10.92,8.34V639Z" transform="translate(-53.32 -47.1)"/><path d="M403.33,545.79a105.13,105.13,0,0,0-4.41,20.5,21.06,21.06,0,0,0,11.35,5.77A90.35,90.35,0,0,1,414,553Z" transform="translate(-53.32 -47.1)"/><path class="cls-21" d="M424.59,507.47c-5.92,0-25.18,19.93-25.18,39.52s19.26,15.3,25.18,15.3Z" transform="translate(-53.32 -47.1)"/><path d="M424.59,507.47v54.89c-2.45,0-7.15.74-11.8.23V516.21C417.49,510.9,422.18,507.47,424.59,507.47Z" transform="translate(-53.32 -47.1)"/><path class="cls-20" d="M525.4,639c9,0,16.2-5.55,20.93-16.11,6.16-13.7,6.32-32,6.08-40.37-.37-13.64-2.49-27.35-5.67-36.6L536.05,553c4.82,14.1,7.06,45.91.29,61-2.57,5.7-6.05,8.34-10.93,8.34Z" transform="translate(-53.32 -47.1)"/><path d="M546.69,545.79a106.78,106.78,0,0,1,4.41,20.5,21.09,21.09,0,0,1-11.35,5.77A90.93,90.93,0,0,0,536,553Z" transform="translate(-53.32 -47.1)"/><path class="cls-22" d="M525.4,507.47c5.91,0,25.18,19.93,25.18,39.52s-19.24,15.3-25.18,15.3Z" transform="translate(-53.32 -47.1)"/><path d="M525.4,507.47v54.89c2.45,0,7.14.74,11.79.23V516.21C532.56,510.9,527.88,507.47,525.4,507.47Z" transform="translate(-53.32 -47.1)"/><path class="cls-23" d="M529.47,703.8V494.91c0-6.74-4-12.28-8.74-12.28H429.36c-4.82,0-8.77,5.54-8.77,12.28V703.8Z" transform="translate(-53.32 -47.1)"/><path class="cls-23" d="M420.59,608.61H529.47v95.25H420.59Z" transform="translate(-53.32 -47.1)"/><path class="cls-24" d="M438.14,659.87H450.8v43.19H438.14Zm54.44,0h12.65v43.19H492.58Z" transform="translate(-53.32 -47.1)"/><path class="cls-13" d="M442.46,518.66h65.13v33H442.46Z" transform="translate(-53.32 -47.1)"/><path class="cls-21" d="M420.59,584.9H475v52.83H420.59Z" transform="translate(-53.32 -47.1)"/><path class="cls-25" d="M475,584.9h54.44v52.83H475Z" transform="translate(-53.32 -47.1)"/><line class="cls-13" x1="394.33" y1="497.58" x2="394.33" y2="505.73"/><rect class="cls-26" x="421.01" y="494.33" width="12.31" height="8.14"/><rect class="cls-27" x="406.06" y="494.33" width="12.31" height="8.14"/><rect class="cls-28" x="436.62" y="494.33" width="12.31" height="8.14"/></g></svg>