<svg id="Layer_1" data-name="Layer 1" xmlns="http://www.w3.org/2000/svg" viewBox="0 0 621.32 748.44"><defs><style>.cls-1{fill:#f4f4f4;}.cls-2{fill:#e9e9e9;}.cls-3{fill:#6ddae1;}.cls-4{fill:#4fc4d4;}.cls-5{fill:#ffd791;}.cls-6{fill:#96ca62;}.cls-7{fill:#bdbcbc;}.cls-8{fill:#ff8c78;}.cls-9{fill:#918f90;}.cls-10{fill:#df7a6e;}</style></defs><path class="cls-1" d="M700.75,30.12H103.27A11.92,11.92,0,0,0,91.36,42V766.65a11.91,11.91,0,0,0,11.91,11.91H586.34a11.91,11.91,0,0,0,8.43-3.49L709.18,660.66a11.88,11.88,0,0,0,3.49-8.43V42A11.92,11.92,0,0,0,700.75,30.12Z" transform="translate(-91.36 -30.12)"/><path class="cls-2" d="M103.27,30.12A11.92,11.92,0,0,0,91.36,42V766.65a11.91,11.91,0,0,0,11.91,11.91H448.88L137.1,30.12Z" transform="translate(-91.36 -30.12)"/><path class="cls-2" d="M586.74,664.15V778.54a11.91,11.91,0,0,0,8-3.47L709.18,660.66a11.89,11.89,0,0,0,3.46-8.43h-114A11.92,11.92,0,0,0,586.74,664.15Z" transform="translate(-91.36 -30.12)"/><rect class="cls-3" x="437.78" y="92.8" width="61.84" height="341.8"/><rect class="cls-3" x="124.49" y="108.26" width="54.27" height="326.34"/><rect class="cls-4" x="124.49" y="117.82" width="375.13" height="29.59"/><path class="cls-5" d="M611.77,70.35H192.26c-6.58,0-11.92,7-11.92,15.61v50c0,8.62,5.34,15.61,11.92,15.61H611.77c6.58,0,11.91-7,11.91-15.61V86C623.68,77.34,618.35,70.35,611.77,70.35Z" transform="translate(-91.36 -30.12)"/><path class="cls-5" d="M611.77,436.77H192.26c-6.58,0-11.92,7-11.92,15.61v50c0,8.62,5.34,15.61,11.92,15.61H611.77c6.58,0,11.91-7,11.91-15.61v-50C623.68,443.76,618.35,436.77,611.77,436.77Z" transform="translate(-91.36 -30.12)"/><path class="cls-6" d="M418.72,294.3H406.34v-40h31.44a14.29,14.29,0,1,0,0-28.58H406.34V209.5a14.3,14.3,0,0,0-28.59,0v16.2H365.37A33.39,33.39,0,0,0,332,259.05v30.49a33.38,33.38,0,0,0,33.35,33.34h12.38v40H346.31a14.29,14.29,0,0,0,0,28.58h31.44v16.2a14.3,14.3,0,0,0,28.59,0v-16.2h12.38a33.38,33.38,0,0,0,33.35-33.34V327.65A33.39,33.39,0,0,0,418.72,294.3Zm-53.35,0a4.77,4.77,0,0,1-4.77-4.76V259.05a4.78,4.78,0,0,1,4.77-4.77h12.38v40Zm58.11,63.84a4.76,4.76,0,0,1-4.76,4.76H406.34v-40h12.38a4.77,4.77,0,0,1,4.76,4.77Z" transform="translate(-91.36 -30.12)"/><path class="cls-7" d="M395.66,645.08H243.11a11.92,11.92,0,1,1,0-23.83H395.66a11.92,11.92,0,1,1,0,23.83Z" transform="translate(-91.36 -30.12)"/><path class="cls-7" d="M433.79,708.64H243.11a11.92,11.92,0,1,1,0-23.83H433.79a11.92,11.92,0,1,1,0,23.83Z" transform="translate(-91.36 -30.12)"/><path class="cls-7" d="M395.66,581.52H243.11a11.92,11.92,0,1,1,0-23.83H395.66a11.92,11.92,0,1,1,0,23.83Z" transform="translate(-91.36 -30.12)"/><path class="cls-2" d="M691.43,472.6l-34.37-34.37a7.6,7.6,0,0,0-10.74,0l-28.87,28.88a7.55,7.55,0,0,0-2.22,5.37,7.63,7.63,0,0,0,2.22,5.37l34.36,34.36a7.58,7.58,0,0,0,10.74,0l28.88-28.87A7.6,7.6,0,0,0,691.43,472.6Z" transform="translate(-91.36 -30.12)"/><path class="cls-5" d="M445.87,638.69a7.58,7.58,0,0,0-1.84,3L426.85,693.2a7.61,7.61,0,0,0,7.21,10,7.68,7.68,0,0,0,2.4-.39L488,685.63a7.58,7.58,0,0,0,3-1.84l10.94-10.94-45.1-45.1Z" transform="translate(-91.36 -30.12)"/><polygon class="cls-8" points="521.71 442.78 565.65 486.68 398.7 653.43 354.75 609.53 521.71 442.78"/><path class="cls-9" d="M426.85,693.2a7.67,7.67,0,0,0,9.61,9.61l17.19-5.73L432.58,676Z" transform="translate(-91.36 -30.12)"/><polygon class="cls-10" points="373.06 625.6 359.83 609.16 518.6 448.89 531.83 465.32 373.06 625.6"/></svg>